<svg version="1.2" xmlns="http://www.w3.org/2000/svg" viewBox="0 0 72 72" width="72" height="72">
	<title>zadanie-golden</title>
	<style>
		tspan { white-space:pre } 
		.s0 { fill: #ffffff;stroke: #fed136;paint-order:stroke fill markers;stroke-linejoin: round;stroke-width: 6 } 
		.s1 { fill: #fed136 } 
	</style>
	<g id="Services">
		<g id="1 - E-Commerce">
			<path id="Circle-1" fill-rule="evenodd" class="s0" d="m36 3.2c18.3 0 33.2 14.8 33.2 33.1 0 18.3-14.9 33.1-33.2 33.1-18.3 0-33.1-14.8-33.1-33.1 0-18.3 14.8-33.1 33.1-33.1z"/>
			<path id="Icon-Basket" fill-rule="evenodd" class="s1" d="m16.8 29.9c0-1.9 1.5-3.5 3.4-3.5h3.9q0.1-0.3 0.3-0.6l4.1-7.2c0.7-1.3 2.4-1.7 3.7-1 1.4 0.8 1.8 2.5 1.1 3.8l-3 5h11.4l-2.9-5c-0.8-1.3-0.3-3 1-3.8 1.3-0.7 3-0.3 3.8 1l4.1 7.2q0.2 0.3 0.3 0.6h3.9c1.9 0 3.4 1.6 3.4 3.5 0 1.9-1.5 3.4-3.4 3.4h-31.7c-1.9 0-3.4-1.5-3.4-3.4zm34.5 25.5h-30.5l-1.2-20.7h32.9zm-16.7-13.8v8.3c0 0.8 0.7 1.4 1.4 1.4 0.8 0 1.4-0.6 1.4-1.4v-8.3c0-0.7-0.6-1.3-1.4-1.3-0.7 0-1.4 0.6-1.4 1.3zm8.3 0v8.3c0 0.8 0.6 1.4 1.4 1.4 0.7 0 1.4-0.6 1.4-1.4v-8.3c0-0.7-0.7-1.3-1.4-1.3-0.8 0-1.4 0.6-1.4 1.3zm-16.5 0v8.3c0 0.8 0.6 1.4 1.4 1.4 0.7 0 1.3-0.6 1.3-1.4v-8.3c0-0.7-0.6-1.3-1.3-1.3-0.8 0-1.4 0.6-1.4 1.3z"/>
		</g>
	</g>
</svg>