<svg version="1.2" xmlns="http://www.w3.org/2000/svg" viewBox="0 0 72 72" width="72" height="72">
	<title>zadanie-golden</title>
	<style>
		tspan { white-space:pre } 
		.s0 { fill: #ffffff;stroke: #fed136;paint-order:stroke fill markers;stroke-linejoin: round;stroke-width: 6 } 
		.s1 { fill: #fed136 } 
	</style>
	<g id="Services">
		<g id="2 - Responsive Web">
			<path id="Circle-2" fill-rule="evenodd" class="s0" d="m35.9 3.2c18.3 0 33.1 14.8 33.1 33.1 0 18.3-14.8 33.1-33.1 33.1-18.3 0-33.1-14.8-33.1-33.1 0-18.3 14.8-33.1 33.1-33.1z"/>
			<path id="Icon-Laptop" fill-rule="evenodd" class="s1" d="m23.4 19.9h26.9c2.2 0 4 1.8 4 4v17.5q0 0.7-0.2 1.4h0.2v2.7h-4v-21.6h-26.9v21.6h-4.1v-2.7h0.3q-0.3-0.7-0.3-1.4v-17.5c0-2.2 1.8-4 4.1-4zm-4.1 28.3h35c1.5 0 2.7 1.2 2.7 2.6 0 1.5-2.6 2.7-4 2.7h-32.3c-1.5 0-4.1-1.2-4.1-2.7 0-1.4 1.2-2.6 2.7-2.6zm12.1 3.3c0 0.4 0.6 0.7 1.4 0.7h8c0.8 0 1.4-0.3 1.4-0.7 0-0.4-0.6-0.7-1.4-0.7h-8c-0.8 0-1.4 0.3-1.4 0.7zm-3.6-15.8l1.9-1.9c0.5-0.5 1.3-0.5 1.9 0l2.4 2.5 8.1-8.1c0.5-0.5 1.3-0.5 1.8 0l1.9 1.9c0.6 0.6 0.6 1.4 0 1.9l-10.4 10.5c-0.4 0.5-1.1 0.5-1.6 0.2-0.5 0.1-0.9 0-1.3-0.4l-4.7-4.7c-0.5-0.5-0.5-1.4 0-1.9z"/>
		</g>
	</g>
</svg>